<svg width="1001" height="1000" viewBox="0 0 1001 1000" fill="none" xmlns="http://www.w3.org/2000/svg">
<path d="M497.965 0L309.754 451.73H187.621L0 0H134.22L253.447 294.388L374.821 0H497.965Z" fill="#E6E6E6"/>
<path d="M309.754 453.061H187.621L0 1.33057H134.22L253.447 295.718L309.754 453.061Z" fill="white"/>
<path d="M1000.02 0V451.73H897.803L704.075 210.89V451.73H582.195V0H684.45L878.178 240.799V0H1000.02Z" fill="white"/>
<path d="M251.552 542.654C380.362 542.654 484.783 645.034 484.783 771.325C484.783 897.616 380.362 999.995 251.552 999.995C122.742 999.994 18.3205 897.616 18.3203 771.325C18.3203 645.034 122.742 542.654 251.552 542.654ZM254.253 619.408C249.672 619.408 245.223 620.913 241.619 623.683C237.913 626.469 235.189 630.32 233.828 634.698L208.938 713.534H128.583C125.745 713.521 122.939 714.127 120.37 715.308C117.801 716.456 115.484 718.081 113.548 720.093C111.571 722.128 109.999 724.507 108.915 727.107C107.774 729.801 107.187 732.689 107.188 735.605C107.199 739.059 107.99 742.469 109.505 745.588C111.014 748.684 113.269 751.374 116.075 753.426L181.227 802.106L155.831 880.86C155.144 883.024 154.789 885.276 154.778 887.542C154.74 890.489 155.328 893.412 156.505 896.124C157.599 898.731 159.169 901.122 161.138 903.178C163.08 905.156 165.378 906.764 167.918 907.922C170.555 909.121 173.433 909.728 176.341 909.697C180.91 909.779 185.37 908.322 188.976 905.571L254.169 856.809L319.152 905.654C322.777 908.37 327.224 909.822 331.787 909.779C334.684 909.797 337.554 909.221 340.21 908.087C345.402 905.766 349.476 901.568 351.581 896.372C352.675 893.667 353.231 890.782 353.223 887.873C353.189 885.527 352.835 883.196 352.17 880.942L327.28 802.106L392.601 753.426C395.395 751.362 397.647 748.675 399.17 745.588C400.685 742.469 401.476 739.059 401.486 735.605C401.547 732.686 401.018 729.783 399.929 727.065C398.855 724.45 397.266 722.067 395.254 720.052C393.343 718.029 391.036 716.402 388.473 715.267C385.837 714.063 382.958 713.456 380.05 713.493H299.526L274.553 634.698C273.203 630.347 270.529 626.504 266.888 623.683C263.283 620.913 258.834 619.408 254.253 619.408Z" fill="white"/>
<path d="M990.017 543.918V665.741H602.898V543.918H990.017Z" fill="white"/>
<path d="M733.758 546.779H857.491V996.859H733.758V546.779Z" fill="white"/>
<path d="M990.017 876.986V998.809H602.898V876.986H990.017Z" fill="white"/>
<path d="M990 543.923V665.746L863.992 543.923H990Z" fill="#E6E6E6"/>
</svg>
